<?xml version="1.0" encoding="utf-8"?>
<!-- Generator: Adobe Illustrator 27.5.0, SVG Export Plug-In . SVG Version: 6.00 Build 0)  -->
<svg version="1.1" xmlns="http://www.w3.org/2000/svg" xmlns:xlink="http://www.w3.org/1999/xlink" x="0px" y="0px"
	 viewBox="0 0 750 500" style="enable-background:new 0 0 750 500;" xml:space="preserve">
<g id="BACKGROUND">
	<rect style="fill:#FFFFFF;" width="750" height="500"/>
</g>
<g id="OBJECTS">
	<circle style="fill:#FFE4DA;" cx="452.118" cy="225.872" r="17.897"/>
	<g>
		<path style="fill:#FFE4DA;" d="M499.51,165.839c-0.436-0.932-1.327-1.031-2.044-1.333c-5.062-2.131-10.293-3.701-15.638-4.924
			c-1.582-0.362-2.795-0.096-4.082,0.885c-3.833,2.921-8.025,5.257-12.427,7.216c-1.273,0.567-2.574,1.037-3.98,1.103
			c-0.966,0.046-1.858-0.162-2.357-1.132c-0.495-0.965-0.158-1.821,0.421-2.59c0.73-0.971,1.697-1.676,2.7-2.353
			c2.493-1.683,5.128-3.122,8.079-4.369c-0.902-0.796-1.675-0.637-2.359-0.667c-3.697-0.163-7.4-0.178-11.09-0.423
			c-2.182-0.145-3.696,0.688-4.983,2.342c-1.588,2.041-3.236,4.039-4.941,5.981c-1.033,1.177-2.185,2.259-3.631,2.955
			c-0.881,0.424-1.771,0.618-2.612-0.044c-0.978-0.769-0.822-1.802-0.505-2.805c0.401-1.266,1.201-2.292,2.115-3.219
			c0.967-0.981,1.982-1.915,2.848-3.226c-1.038,0.363-2.082,0.706-3.11,1.091c-3.819,1.428-7.712,2.558-11.805,2.853
			c-2.04,0.146-4.084,0.093-6.018-0.701c-1.132-0.465-2.222-1.08-2.279-2.532c-0.057-1.443,0.926-2.118,2.056-2.67
			c1.266-0.62,2.639-0.824,4.01-1.023c3.755-0.545,7.547-0.651,11.331-0.845c1.192-0.061,2.382-0.151,3.527-0.224
			c0.344-1.073-0.517-1.21-0.969-1.543c-1.649-1.216-3.28-2.442-4.624-4.012c-0.547-0.639-1.102-1.276-1.375-2.087
			c-0.366-1.085-0.629-2.204,0.236-3.158c0.869-0.96,1.994-0.818,3.098-0.5c1.816,0.523,3.376,1.551,4.826,2.72
			c2.896,2.335,5.767,4.7,8.588,7.124c0.74,0.636,1.4,1.104,2.427,1.08c4.625-0.111,9.246,0.113,13.865,0.386
			c0.27,0.016,0.542,0.004,0.728-0.432c-1.36-1.511-2.804-3.054-4.179-4.657c-1.546-1.803-2.513-3.912-2.956-6.242
			c-0.257-1.348-0.159-2.699,1.102-3.485c1.305-0.813,2.526-0.148,3.551,0.725c2.71,2.309,4.882,5.107,6.903,8.015
			c1.329,1.91,2.585,3.875,3.788,5.867c0.567,0.939,1.21,1.544,2.331,1.746c6.406,1.159,12.599,3.076,18.628,5.553
			c0.245,0.1,0.531,0.095,0.977,0.168c0.04-1.147-0.671-1.944-1.061-2.818c-1.273-2.853-1.899-5.829-1.901-8.939
			c0-0.462,0.05-0.931,0.133-1.385c0.276-1.514,0.716-3.009,2.461-3.324c1.721-0.31,2.727,0.894,3.554,2.186
			c1.125,1.759,1.664,3.747,1.978,5.776c0.538,3.492,1.017,6.994,1.45,10.5c0.135,1.09,0.452,1.89,1.474,2.477
			c6.494,3.727,12.208,8.458,17.388,13.864c0.251,0.261,0.563,0.463,0.981,0.799c0.481-1.281-0.226-2.284-0.485-3.271
			c-0.683-2.611-1.484-5.197-1.882-7.868c-0.456-3.064-0.484-6.125,0.599-9.083c0.464-1.269,1.13-2.449,2.675-2.425
			c1.548,0.024,2.206,1.254,2.647,2.514c0.712,2.032,0.981,4.161,1.202,6.291c0.569,5.479,0.504,10.964,0.085,16.433
			c-0.162,2.106,0.348,3.748,1.752,5.331c2.035,2.294,3.908,4.737,5.79,7.163c0.591,0.762,1.662,1.782,0.638,2.65
			c-1.265,1.072-1.877-0.407-2.545-1.215c-2.076-2.51-4.106-5.059-6.214-7.541c-1.469-1.729-1.701-1.749-3.764-0.757
			c-4.809,2.312-9.831,3.725-15.223,3.586c-1.202-0.031-2.426-0.062-3.53-0.621c-1.427-0.723-1.613-2.136-0.373-3.136
			c1.091-0.88,2.434-1.305,3.765-1.7c3.73-1.104,7.562-1.694,11.411-2.206c0.883-0.118,1.828-0.006,2.597-0.522
			c0.122-0.623-0.277-0.912-0.584-1.249c-4.659-5.119-9.834-9.621-15.648-13.377c-1.244-0.803-2.283-1.059-3.815-0.447
			c-5.679,2.264-11.703,2.432-17.738,2.3c-0.544-0.012-1.118-0.126-1.621-0.334c-1.384-0.574-1.598-1.82-0.493-2.865
			c0.755-0.715,1.736-1.016,2.719-1.305c2.847-0.838,5.775-1.229,8.709-1.603C497.699,166.215,498.629,166.294,499.51,165.839
			 M503.263,163.105c0.499-5.684-1.332-12.832-3.794-14.273C498.58,154.206,500.59,158.655,503.263,163.105 M528.377,178.426
			c0.963-4.789,0.081-13.732-1.613-16.46C524.991,167.687,526.659,172.824,528.377,178.426 M474.424,154.676
			c-2.653-4.183-5.1-8.605-9.507-11.924C465.646,147.353,468.91,151.453,474.424,154.676 M424.878,160.134
			c3.877,1.175,7.509,0.378,11.133-0.598c0.154-0.042,0.399-0.296,0.379-0.333c-0.124-0.233-0.294-0.448-0.48-0.639
			c-0.52-0.533-1.199-0.454-1.828-0.389c-2.475,0.254-4.948,0.533-7.418,0.843C426.054,159.092,425.381,159.155,424.878,160.134
			 M438.735,146.616c1.318,3.196,6.23,6.803,9.775,7.234C445.443,151.201,442.658,148.177,438.735,146.616 M462.847,165.773
			c4.412-1.386,9.212-4.101,11.53-6.533c-3.626,1.669-7.069,3.234-10.304,5.211C463.634,164.72,463.048,164.862,462.847,165.773
			 M522.542,188.564c-3.438,0.225-6.823,0.609-9.994,1.982C516.091,190.904,519.394,190.067,522.542,188.564 M499.968,168.796
			c-2.149-0.066-4.301,0.097-6.575,0.684c0.874,0.545,1.593,0.258,2.272,0.184C497.104,169.507,498.578,169.5,499.968,168.796"/>
		<rect x="249.421" y="254.928" style="fill:#FFE4DA;" width="155.984" height="95.204"/>
		<rect x="249.421" y="170.951" style="fill:#FFE4DA;" width="155.984" height="11.714"/>
		<path style="fill:#414151;" d="M498.656,172.387c-0.521-0.888-1.417-0.904-2.158-1.139c-5.237-1.655-10.59-2.736-16.025-3.46
			c-1.609-0.214-2.792,0.163-3.983,1.258c-3.548,3.262-7.505,5.975-11.708,8.331c-1.215,0.682-2.467,1.27-3.861,1.465
			c-0.958,0.135-1.865,0.011-2.451-0.91c-0.582-0.915-0.326-1.798,0.181-2.618c0.638-1.034,1.535-1.826,2.471-2.592
			c2.328-1.906,4.818-3.582,7.642-5.096c-0.972-0.71-1.727-0.48-2.41-0.447c-3.696,0.179-7.385,0.506-11.082,0.602
			c-2.186,0.057-3.617,1.026-4.745,2.792c-1.393,2.179-2.85,4.32-4.368,6.412c-0.92,1.267-1.967,2.451-3.343,3.277
			c-0.838,0.504-1.706,0.779-2.605,0.197c-1.045-0.676-0.985-1.719-0.762-2.746c0.282-1.298,0.984-2.394,1.809-3.4
			c0.873-1.066,1.796-2.09,2.538-3.475c-1,0.457-2.008,0.895-2.996,1.374c-3.671,1.774-7.443,3.259-11.492,3.93
			c-2.018,0.334-4.058,0.47-6.057-0.143c-1.17-0.359-2.313-0.87-2.503-2.311c-0.189-1.431,0.727-2.194,1.801-2.848
			c1.204-0.734,2.552-1.064,3.898-1.389c3.689-0.889,7.454-1.344,11.205-1.887c1.181-0.171,2.358-0.37,3.491-0.548
			c0.243-1.101-0.627-1.157-1.107-1.447c-1.754-1.059-3.492-2.129-4.974-3.568c-0.604-0.586-1.214-1.169-1.561-1.951
			c-0.464-1.046-0.83-2.136-0.056-3.167c0.776-1.036,1.91-0.998,3.038-0.783c1.857,0.353,3.505,1.233,5.056,2.264
			c3.099,2.057,6.176,4.148,9.209,6.301c0.795,0.565,1.496,0.97,2.516,0.851c4.595-0.537,9.217-0.741,13.842-0.895
			c0.271-0.009,0.54-0.046,0.685-0.497c-1.494-1.379-3.074-2.782-4.59-4.252c-1.706-1.653-2.863-3.663-3.52-5.943
			c-0.38-1.319-0.407-2.673,0.776-3.572c1.224-0.93,2.501-0.38,3.603,0.395c2.912,2.049,5.332,4.635,7.613,7.344
			c1.499,1.78,2.931,3.62,4.313,5.492c0.651,0.883,1.348,1.425,2.483,1.524c6.486,0.563,12.829,1.901,19.061,3.811
			c0.253,0.077,0.538,0.045,0.988,0.077c-0.066-1.146-0.848-1.874-1.317-2.708c-1.531-2.724-2.429-5.629-2.717-8.725
			c-0.043-0.46-0.036-0.932,0.005-1.392c0.135-1.533,0.435-3.062,2.144-3.537c1.685-0.468,2.798,0.639,3.741,1.849
			c1.282,1.647,2.003,3.577,2.502,5.569c0.858,3.427,1.658,6.87,2.412,10.322c0.235,1.073,0.625,1.84,1.697,2.33
			c6.81,3.111,12.936,7.296,18.593,12.201c0.274,0.237,0.604,0.409,1.051,0.705c0.36-1.32-0.435-2.253-0.784-3.213
			c-0.921-2.537-1.957-5.037-2.6-7.661c-0.737-3.008-1.047-6.055-0.241-9.1c0.345-1.306,0.9-2.543,2.44-2.662
			c1.544-0.119,2.313,1.045,2.868,2.259c0.896,1.957,1.361,4.053,1.777,6.153c1.072,5.403,1.513,10.87,1.601,16.355
			c0.033,2.112,0.692,3.7,2.237,5.147c2.238,2.097,4.328,4.356,6.426,6.598c0.658,0.704,1.819,1.621,0.879,2.58
			c-1.16,1.184-1.906-0.232-2.647-0.975c-2.299-2.308-4.555-4.658-6.883-6.936c-1.622-1.586-1.855-1.585-3.818-0.407
			c-4.575,2.746-9.445,4.616-14.827,4.975c-1.2,0.08-2.421,0.162-3.572-0.293c-1.488-0.588-1.803-1.978-0.661-3.088
			c1.005-0.977,2.303-1.524,3.592-2.04c3.613-1.443,7.374-2.385,11.159-3.25c0.868-0.199,1.819-0.175,2.538-0.759
			c0.064-0.632-0.36-0.883-0.696-1.189c-5.112-4.667-10.68-8.673-16.815-11.877c-1.313-0.685-2.371-0.844-3.84-0.094
			c-5.446,2.779-11.429,3.502-17.451,3.927c-0.543,0.038-1.125-0.022-1.645-0.183c-1.431-0.443-1.759-1.665-0.755-2.807
			c0.686-0.781,1.635-1.172,2.587-1.55c2.758-1.097,5.637-1.757,8.524-2.399C496.888,172.929,497.822,172.922,498.656,172.387
			 M502.141,169.319c-0.027-5.706-2.51-12.655-5.094-13.862C496.657,160.89,499.069,165.135,502.141,169.319 M528.561,182.258
			c0.517-4.857-1.187-13.681-3.124-16.241C524.2,171.876,526.334,176.838,528.561,182.258 M472.647,163.586
			c-3.027-3.921-5.872-8.098-10.566-10.996C463.232,157.104,466.86,160.886,472.647,163.586 M423.816,173.592
			c3.968,0.812,7.512-0.316,11.03-1.623c0.149-0.055,0.37-0.332,0.347-0.367c-0.145-0.221-0.334-0.419-0.537-0.592
			c-0.567-0.482-1.236-0.342-1.857-0.219c-2.441,0.481-4.878,0.987-7.308,1.523C424.891,172.447,424.227,172.571,423.816,173.592
			 M436.367,158.853c1.607,3.061,6.831,6.199,10.4,6.301C443.469,162.8,440.418,160.046,436.367,158.853 M462.144,175.704
			c4.265-1.788,8.795-4.933,10.878-7.569c-3.457,1.997-6.74,3.873-9.78,6.14C462.83,174.583,462.26,174.778,462.144,175.704
			 M523.686,192.89c-3.403,0.541-6.738,1.236-9.768,2.896C517.479,195.816,520.691,194.677,523.686,192.89 M499.385,175.289
			c-2.146,0.133-4.274,0.494-6.484,1.288c0.921,0.462,1.61,0.11,2.28-0.026C496.599,176.262,498.066,176.118,499.385,175.289"/>
		<g>
			<g>
				<polygon style="fill:#414151;" points="550.339,313.319 199.661,313.319 199.661,218.876 244.267,218.876 244.267,222.301 
					203.086,222.301 203.086,309.894 546.914,309.894 546.914,222.301 539.721,222.301 539.721,218.876 550.339,218.876 				"/>
			</g>
			<g>
				
					<text transform="matrix(1 0 0 1 250.0424 247.6466)" style="fill:#414151; font-family:'JosefinSans-SemiBold'; font-size:60.2671px;">FASHION</text>
			</g>
			<g>
				
					<text transform="matrix(1 0 0 1 243.9663 287.7067)" style="fill:#414151; font-family:'JosefinSans-Light'; font-size:33.3283px;"> S T O R E</text>
			</g>
			<g>
				<rect x="411.19" y="283.67" style="fill:#414151;" width="117.649" height="1.284"/>
			</g>
			<path style="fill:#414151;" d="M450.9,219.488c-8.213,0-8.17,12.768,0.069,12.768C459.182,232.256,459.139,219.488,450.9,219.488
				z"/>
		</g>
		<g>
			
				<text transform="matrix(1 0 0 1 412.7924 333.7826)" style="fill:#414151; font-family:'JosefinSans-Regular'; font-size:10.8313px;">SINCE    2015 WITH YOU</text>
		</g>
		<path style="fill:#FFE4DA;" d="M453.104,327.85c-2.661,0-2.647,4.136,0.022,4.136C455.786,331.986,455.773,327.85,453.104,327.85z
			"/>
	</g>
</g>
</svg>
